<svg width="51" height="52" viewBox="0 0 51 52" fill="none" xmlns="http://www.w3.org/2000/svg">
<rect x="1.5" y="1.5" width="47.5143" height="49" rx="23.7571" fill="white" stroke="#17468F" stroke-width="3"/>
<path d="M38.9534 33.5205C38.9534 34.045 38.7451 34.548 38.3742 34.9189C38.0033 35.2897 37.5003 35.4981 36.9759 35.4981H13.2447C12.7202 35.4981 12.2172 35.2897 11.8464 34.9189C11.4755 34.548 11.2671 34.045 11.2671 33.5205V21.6549C11.2671 21.1304 11.4755 20.6274 11.8464 20.2566C12.2172 19.8857 12.7202 19.6773 13.2447 19.6773H15.5625C17.1351 19.6765 18.6431 19.0512 19.755 17.939L21.3964 16.3016C21.7662 15.9317 22.2675 15.7233 22.7906 15.7222H27.4261C27.9505 15.7223 28.4534 15.9307 28.8242 16.3016L30.4617 17.939C31.0127 18.4902 31.6669 18.9274 32.3869 19.2257C33.107 19.524 33.8787 19.6774 34.6581 19.6773H36.9759C37.5003 19.6773 38.0033 19.8857 38.3742 20.2566C38.7451 20.6274 38.9534 21.1304 38.9534 21.6549V33.5205ZM13.2447 17.6998C12.1958 17.6998 11.1897 18.1165 10.448 18.8582C9.70626 19.5999 9.28955 20.606 9.28955 21.6549V33.5205C9.28955 34.5695 9.70626 35.5755 10.448 36.3172C11.1897 37.059 12.1958 37.4757 13.2447 37.4757H36.9759C38.0248 37.4757 39.0308 37.059 39.7726 36.3172C40.5143 35.5755 40.931 34.5695 40.931 33.5205V21.6549C40.931 20.606 40.5143 19.5999 39.7726 18.8582C39.0308 18.1165 38.0248 17.6998 36.9759 17.6998H34.6581C33.6092 17.6995 32.6034 17.2827 31.8618 16.5409L30.2243 14.9034C29.4828 14.1616 28.4769 13.7448 27.428 13.7446H22.7926C21.7437 13.7448 20.7378 14.1616 19.9962 14.9034L18.3588 16.5409C17.6172 17.2827 16.6114 17.6995 15.5625 17.6998H13.2447Z" fill="#17468F"/>
<path d="M25.1102 31.5427C23.799 31.5427 22.5414 31.0219 21.6143 30.0947C20.6871 29.1675 20.1662 27.91 20.1662 26.5988C20.1662 25.2875 20.6871 24.03 21.6143 23.1028C22.5414 22.1757 23.799 21.6548 25.1102 21.6548C26.4214 21.6548 27.6789 22.1757 28.6061 23.1028C29.5333 24.03 30.0542 25.2875 30.0542 26.5988C30.0542 27.91 29.5333 29.1675 28.6061 30.0947C27.6789 31.0219 26.4214 31.5427 25.1102 31.5427ZM25.1102 33.5203C26.9459 33.5203 28.7064 32.7911 30.0045 31.4931C31.3025 30.195 32.0318 28.4345 32.0318 26.5988C32.0318 24.763 31.3025 23.0025 30.0045 21.7045C28.7064 20.4064 26.9459 19.6772 25.1102 19.6772C23.2745 19.6772 21.5139 20.4064 20.2159 21.7045C18.9178 23.0025 18.1886 24.763 18.1886 26.5988C18.1886 28.4345 18.9178 30.195 20.2159 31.4931C21.5139 32.7911 23.2745 33.5203 25.1102 33.5203V33.5203ZM15.2222 22.6436C15.2222 22.9058 15.118 23.1573 14.9326 23.3428C14.7472 23.5282 14.4957 23.6324 14.2334 23.6324C13.9712 23.6324 13.7197 23.5282 13.5342 23.3428C13.3488 23.1573 13.2446 22.9058 13.2446 22.6436C13.2446 22.3813 13.3488 22.1298 13.5342 21.9444C13.7197 21.759 13.9712 21.6548 14.2334 21.6548C14.4957 21.6548 14.7472 21.759 14.9326 21.9444C15.118 22.1298 15.2222 22.3813 15.2222 22.6436V22.6436Z" fill="#17468F"/>
</svg>
